{
	"asset":{
		"generator":"Khronos glTF Blender I/O v4.0.44",
		"version":"2.0"
	},
	"scene":0,
	"scenes":[
		{
			"name":"Scene",
			"nodes":[
				0
			]
		}
	],
	"nodes":[
		{
			"mesh":0,
			"name":"Cube.027",
			"rotation":[
				0.70710688829422,
				0,
				0,
				0.7071066498756409
			]
		}
	],
	"materials":[
		{
			"doubleSided":true,
			"name":"Material",
			"pbrMetallicRoughness":{
				"baseColorTexture":{
					"index":0
				},
				"metallicFactor":0,
				"roughnessFactor":0.5
			}
		}
	],
	"meshes":[
		{
			"name":"Cube.027",
			"primitives":[
				{
					"attributes":{
						"POSITION":0,
						"NORMAL":1,
						"TEXCOORD_0":2
					},
					"indices":3,
					"material":0
				}
			]
		}
	],
	"textures":[
		{
			"sampler":0,
			"source":0
		}
	],
	"images":[
		{
			"mimeType":"image/png",
			"name":"uv_v2",
			"uri":"uv_v2.png"
		}
	],
	"accessors":[
		{
			"bufferView":0,
			"componentType":5126,
			"count":2072,
			"max":[
				41.928993225097656,
				99.93289947509766,
				0.22729499638080597
			],
			"min":[
				-44.67476272583008,
				-83.7817153930664,
				-41.51540756225586
			],
			"type":"VEC3"
		},
		{
			"bufferView":1,
			"componentType":5126,
			"count":2072,
			"type":"VEC3"
		},
		{
			"bufferView":2,
			"componentType":5126,
			"count":2072,
			"type":"VEC2"
		},
		{
			"bufferView":3,
			"componentType":5123,
			"count":4212,
			"type":"SCALAR"
		}
	],
	"bufferViews":[
		{
			"buffer":0,
			"byteLength":24864,
			"byteOffset":0,
			"target":34962
		},
		{
			"buffer":0,
			"byteLength":24864,
			"byteOffset":24864,
			"target":34962
		},
		{
			"buffer":0,
			"byteLength":16576,
			"byteOffset":49728,
			"target":34962
		},
		{
			"buffer":0,
			"byteLength":8424,
			"byteOffset":66304,
			"target":34963
		}
	],
	"samplers":[
		{
			"magFilter":9729,
			"minFilter":9987
		}
	],
	"buffers":[
		{
			"byteLength":74728,
			"uri":"techado.bin"
		}
	]
}
