{
	"asset":{
		"generator":"Khronos glTF Blender I/O v4.0.44",
		"version":"2.0"
	},
	"scene":0,
	"scenes":[
		{
			"name":"Scene",
			"nodes":[
				0
			]
		}
	],
	"nodes":[
		{
			"mesh":0,
			"name":"default",
			"rotation":[
				0.7071068286895752,
				0,
				0,
				0.7071068286895752
			]
		}
	],
	"meshes":[
		{
			"name":"default",
			"primitives":[
				{
					"attributes":{
						"POSITION":0,
						"NORMAL":1,
						"TEXCOORD_0":2
					},
					"indices":3
				}
			]
		}
	],
	"accessors":[
		{
			"bufferView":0,
			"componentType":5126,
			"count":100216,
			"max":[
				5.015100002288818,
				3.8870010375976562,
				0.044199999421834946
			],
			"min":[
				-5.015100002288818,
				-3.8869988918304443,
				-9.898200035095215
			],
			"type":"VEC3"
		},
		{
			"bufferView":1,
			"componentType":5126,
			"count":100216,
			"type":"VEC3"
		},
		{
			"bufferView":2,
			"componentType":5126,
			"count":100216,
			"type":"VEC2"
		},
		{
			"bufferView":3,
			"componentType":5125,
			"count":208998,
			"type":"SCALAR"
		}
	],
	"bufferViews":[
		{
			"buffer":0,
			"byteLength":1202592,
			"byteOffset":0,
			"target":34962
		},
		{
			"buffer":0,
			"byteLength":1202592,
			"byteOffset":1202592,
			"target":34962
		},
		{
			"buffer":0,
			"byteLength":801728,
			"byteOffset":2405184,
			"target":34962
		},
		{
			"buffer":0,
			"byteLength":835992,
			"byteOffset":3206912,
			"target":34963
		}
	],
	"buffers":[
		{
			"byteLength":4042904,
			"uri":"untitled.bin"
		}
	]
}
